<?xml version="1.0" encoding="UTF-8"?>
<!DOCTYPE svg PUBLIC "-//W3C//DTD SVG 1.1//EN" "http://www.w3.org/Graphics/SVG/1.1/DTD/svg11.dtd">
<svg xmlns="http://www.w3.org/2000/svg" version="1.1" width="490px" height="145px" style="shape-rendering:geometricPrecision; text-rendering:geometricPrecision; image-rendering:optimizeQuality; fill-rule:evenodd; clip-rule:evenodd" xmlns:xlink="http://www.w3.org/1999/xlink">
<g><path style="opacity:1" fill="#beedf3" d="M 91.5,7.5 C 90.9032,8.13863 90.0698,8.47196 89,8.5C 78.7454,7.0178 68.5788,6.0178 58.5,5.5C 69.6539,3.82276 80.6539,4.48942 91.5,7.5 Z"/></g>
<g><path style="opacity:1" fill="#fdfefe" d="M 56.5,6.5 C 56.8417,5.66175 57.5084,5.32842 58.5,5.5C 68.5788,6.0178 78.7454,7.0178 89,8.5C 90.0698,8.47196 90.9032,8.13863 91.5,7.5C 92.4916,7.32842 93.1583,7.66175 93.5,8.5C 105.832,14.2281 116.665,22.8947 126,34.5C 127.934,38.1478 129.767,41.8144 131.5,45.5C 130.995,48.8411 130.828,52.1745 131,55.5C 131.667,54.1667 132.333,52.8333 133,51.5C 135.439,62.0314 136.106,72.698 135,83.5C 134.576,79.81 133.742,79.6433 132.5,83C 132.476,85.1619 132.809,87.4952 133.5,90C 132.141,92.9577 131.474,96.1243 131.5,99.5C 129.678,104.477 127.345,109.143 124.5,113.5C 121.5,118.5 117.5,122.5 112.5,125.5C 108.818,127.332 105.151,129.165 101.5,131C 99.765,131.651 98.0983,131.485 96.5,130.5C 95.6143,131.325 95.281,132.325 95.5,133.5C 94.0695,133.579 92.7362,133.246 91.5,132.5C 90.2888,133.274 90.2888,134.107 91.5,135C 76.0956,138.603 60.7622,138.27 45.5,134C 42.5363,130.547 38.8696,128.047 34.5,126.5C 31.3004,122.433 27.3004,119.433 22.5,117.5C 9.86794,103.276 3.53461,86.6095 3.5,67.5C 3.21552,65.5853 3.54885,63.9187 4.5,62.5C 4.34332,63.8734 4.50999,65.2068 5,66.5C 6.35174,55.0794 9.85174,44.4128 15.5,34.5C 15.7376,32.5956 16.7376,31.2623 18.5,30.5C 26.4101,22.5398 35.4101,16.0398 45.5,11C 47.5,10.6667 49.5,10.3333 51.5,10C 54.0169,9.0568 55.6836,7.89013 56.5,6.5 Z"/></g>
<g><path style="opacity:0.827" fill="#cbecf0" d="M 56.5,6.5 C 55.6836,7.89013 54.0169,9.0568 51.5,10C 49.5,10.3333 47.5,10.6667 45.5,11C 35.4101,16.0398 26.4101,22.5398 18.5,30.5C 27.8383,17.4835 40.505,9.48348 56.5,6.5 Z"/></g>
<g><path style="opacity:1" fill="#6adbfc" d="M 71.5,58.5 C 66.8333,58.5 62.1667,58.5 57.5,58.5C 57.5,52.1667 57.5,45.8333 57.5,39.5C 57.6596,37.847 58.3263,36.5137 59.5,35.5C 60.397,34.4019 61.2303,34.4019 62,35.5C 63.02,34.1095 63.8534,32.6095 64.5,31C 66.3839,30.7837 68.0506,30.117 69.5,29C 71.5675,28.3131 73.5675,28.4798 75.5,29.5C 77.465,34.3219 78.7983,39.3219 79.5,44.5C 80.3267,46.162 81.4933,47.4954 83,48.5C 83.6667,50.5 83.6667,52.5 83,54.5C 82.4646,52.7295 81.6313,52.3961 80.5,53.5C 81.3803,55.9981 80.5469,57.9981 78,59.5C 75.9592,58.5769 73.7925,58.2436 71.5,58.5 Z"/></g>
<g><path style="opacity:0.94" fill="#fefefe" d="M 322.5,29.5 C 328.176,29.3339 333.843,29.5006 339.5,30C 343.451,30.5362 346.951,32.0362 350,34.5C 349.235,39.0548 347.568,43.3882 345,47.5C 334.245,41.2746 324.579,42.6079 316,51.5C 309.417,67.7796 314.917,77.1129 332.5,79.5C 336.86,79.1579 340.86,77.8245 344.5,75.5C 346.89,79.1128 348.89,82.9462 350.5,87C 349.846,88.987 348.513,90.3203 346.5,91C 325.752,97.9777 309.919,92.1444 299,73.5C 293.427,51.6459 301.26,36.9792 322.5,29.5 Z"/></g>
<g><path style="opacity:0.949" fill="#fefefe" d="M 145.5,30.5 C 151.167,30.5 156.833,30.5 162.5,30.5C 166.842,43.3599 171.675,56.0265 177,68.5C 182.258,56.3101 187.258,43.9768 192,31.5C 197.407,30.5268 202.907,30.1934 208.5,30.5C 200.629,50.5817 192.462,70.5817 184,90.5C 182.13,91.7435 179.964,92.4101 177.5,92.5C 175.241,92.4677 173.075,92.1344 171,91.5C 162.006,71.3456 153.506,51.0123 145.5,30.5 Z"/></g>
<g><path style="opacity:1" fill="#71d9f5" d="M 82.5,33.5 C 82.9867,34.4734 83.4867,35.4734 84,36.5C 84.4996,43.4921 84.6663,50.4921 84.5,57.5C 83.8826,57.3893 83.3826,57.056 83,56.5C 80.635,60.5673 81.135,64.2339 84.5,67.5C 85.4954,73.1278 85.8288,78.7945 85.5,84.5C 89.3554,83.3647 93.3554,82.6981 97.5,82.5C 101.188,82.9475 104.854,83.1141 108.5,83C 106.579,81.7592 106.246,80.2592 107.5,78.5C 109.409,79.3482 111.409,79.6816 113.5,79.5C 112.221,82.6519 109.888,84.6519 106.5,85.5C 99.1667,85.5 91.8333,85.5 84.5,85.5C 84.6659,80.4889 84.4993,75.4889 84,70.5C 81.5257,64.8561 77.359,61.1895 71.5,59.5C 71.5,59.1667 71.5,58.8333 71.5,58.5C 73.7925,58.2436 75.9592,58.5769 78,59.5C 80.5469,57.9981 81.3803,55.9981 80.5,53.5C 81.6313,52.3961 82.4646,52.7295 83,54.5C 83.6667,52.5 83.6667,50.5 83,48.5C 81.4933,47.4954 80.3267,46.162 79.5,44.5C 78.7983,39.3219 77.465,34.3219 75.5,29.5C 73.5675,28.4798 71.5675,28.3131 69.5,29C 68.0506,30.117 66.3839,30.7837 64.5,31C 63.8534,32.6095 63.02,34.1095 62,35.5C 61.2303,34.4019 60.397,34.4019 59.5,35.5C 60.3625,31.714 62.6958,29.214 66.5,28C 73.1881,26.1887 78.5214,28.022 82.5,33.5 Z"/></g>
<g><path style="opacity:0.835" fill="#c3e4ea" d="M 15.5,34.5 C 9.85174,44.4128 6.35174,55.0794 5,66.5C 4.50999,65.2068 4.34332,63.8734 4.5,62.5C 5.4438,51.9851 9.11047,42.6518 15.5,34.5 Z"/></g>
<g><path style="opacity:1" fill="#cbf6fe" d="M 82.5,33.5 C 83.4959,33.4142 84.3292,33.7476 85,34.5C 85.4997,42.4931 85.6664,50.4931 85.5,58.5C 92.6866,58.1755 99.6866,58.5088 106.5,59.5C 98.7572,60.1299 91.4238,59.4633 84.5,57.5C 84.6663,50.4921 84.4996,43.4921 84,36.5C 83.4867,35.4734 82.9867,34.4734 82.5,33.5 Z"/></g>
<g><path style="opacity:0.942" fill="#fefefe" d="M 222.5,52.5 C 228.123,52.0494 233.456,53.0494 238.5,55.5C 239.308,55.1924 239.975,54.6924 240.5,54C 244.821,53.501 249.154,53.3343 253.5,53.5C 253.5,66.5 253.5,79.5 253.5,92.5C 249.154,92.6657 244.821,92.499 240.5,92C 239.975,91.3076 239.308,90.8076 238.5,90.5C 222.905,97.4736 212.738,92.8069 208,76.5C 207.003,64.8054 211.837,56.8054 222.5,52.5 Z M 228.5,64.5 C 237.671,64.1754 241.171,68.5088 239,77.5C 234.357,82.4534 229.357,82.7867 224,78.5C 221.606,72.5175 223.106,67.8508 228.5,64.5 Z"/></g>
<g><path style="opacity:0.92" fill="#fefefe" d="M 284.5,52.5 C 296.865,52.0646 298.865,56.5646 290.5,66C 288.187,65.8509 285.853,65.3509 283.5,64.5C 280.786,64.9404 278.62,66.2738 277,68.5C 275.599,76.4148 275.099,84.4148 275.5,92.5C 270.901,92.8 266.401,92.4667 262,91.5C 261.333,79.1667 261.333,66.8333 262,54.5C 266.401,53.5333 270.901,53.2 275.5,53.5C 275.312,55.1033 275.812,56.4366 277,57.5C 279.17,55.1769 281.67,53.5103 284.5,52.5 Z"/></g>
<g><path style="opacity:0.948" fill="#fefefe" d="M 368.5,52.5 C 373.821,51.9787 378.821,52.9787 383.5,55.5C 384.308,55.1924 384.975,54.6924 385.5,54C 389.821,53.501 394.154,53.3343 398.5,53.5C 398.5,66.5 398.5,79.5 398.5,92.5C 394.154,92.6657 389.821,92.499 385.5,92C 384.975,91.3076 384.308,90.8076 383.5,90.5C 369.646,97.1637 359.812,93.497 354,79.5C 351.045,66.0641 355.879,57.0641 368.5,52.5 Z M 373.5,64.5 C 383.568,64.5496 386.902,69.2163 383.5,78.5C 375.658,83.8569 370.325,82.0236 367.5,73C 368.418,69.3048 370.418,66.4715 373.5,64.5 Z"/></g>
<g><path style="opacity:0.919" fill="#fefefe" d="M 429.5,52.5 C 441.958,52.0143 443.958,56.5143 435.5,66C 433.187,65.8509 430.853,65.3509 428.5,64.5C 425.786,64.9404 423.62,66.2738 422,68.5C 420.599,76.4148 420.099,84.4148 420.5,92.5C 415.833,92.5 411.167,92.5 406.5,92.5C 406.333,79.8289 406.5,67.1623 407,54.5C 411.413,53.3676 415.913,53.2009 420.5,54C 421.191,55.0674 421.691,56.2341 422,57.5C 424.17,55.1769 426.67,53.5103 429.5,52.5 Z"/></g>
<g><path style="opacity:0.929" fill="#fdfdfd" d="M 458.5,52.5 C 475.466,50.982 483.8,58.482 483.5,75C 480.242,75.2117 477.076,75.7117 474,76.5C 468.259,75.5251 462.425,75.1918 456.5,75.5C 457.906,82.0223 461.906,84.189 468.5,82C 470.344,80.8179 472.177,79.6512 474,78.5C 477.232,80.2002 480.399,82.0335 483.5,84C 476.51,92.5525 467.51,95.5525 456.5,93C 444.088,87.6769 439.588,78.5102 443,65.5C 446.258,58.7302 451.425,54.3969 458.5,52.5 Z M 462.5,61.5 C 466.731,61.4378 469.065,63.4378 469.5,67.5C 465.5,67.5 461.5,67.5 457.5,67.5C 457.749,64.2556 459.416,62.2556 462.5,61.5 Z"/></g>
<g><path style="opacity:1" fill="#e5fefe" d="M 57.5,39.5 C 57.5,45.8333 57.5,52.1667 57.5,58.5C 50.1591,58.3337 42.8258,58.5003 35.5,59C 33.6125,60.3937 31.6125,61.5604 29.5,62.5C 29.5,61.1667 29.5,59.8333 29.5,58.5C 38.4596,57.5851 47.4596,57.2518 56.5,57.5C 56.1771,51.31 56.5104,45.31 57.5,39.5 Z"/></g>
<g><path style="opacity:1" fill="#16817d" d="M 57.5,58.5 C 62.1667,58.5 66.8333,58.5 71.5,58.5C 71.5,58.8333 71.5,59.1667 71.5,59.5C 67.1667,59.5 62.8333,59.5 58.5,59.5C 58.5,63.5 58.5,67.5 58.5,71.5C 58.1667,71.5 57.8333,71.5 57.5,71.5C 57.5,67.1667 57.5,62.8333 57.5,58.5 Z"/></g>
<g><path style="opacity:1" fill="#f1fefe" d="M 131.5,45.5 C 135.896,53.6659 137.896,62.4993 137.5,72C 137.79,81.7949 135.79,90.9616 131.5,99.5C 131.474,96.1243 132.141,92.9577 133.5,90C 132.809,87.4952 132.476,85.1619 132.5,83C 133.742,79.6433 134.576,79.81 135,83.5C 136.106,72.698 135.439,62.0314 133,51.5C 132.333,52.8333 131.667,54.1667 131,55.5C 130.828,52.1745 130.995,48.8411 131.5,45.5 Z"/></g>
<g><path style="opacity:1" fill="#68dbfd" d="M 84.5,57.5 C 91.4238,59.4633 98.7572,60.1299 106.5,59.5C 108.368,60.2632 110.035,61.2632 111.5,62.5C 111.791,65.909 112.791,69.0757 114.5,72C 114.083,74.4979 113.749,76.9979 113.5,79.5C 111.409,79.6816 109.409,79.3482 107.5,78.5C 106.246,80.2592 106.579,81.7592 108.5,83C 104.854,83.1141 101.188,82.9475 97.5,82.5C 93.3554,82.6981 89.3554,83.3647 85.5,84.5C 85.8288,78.7945 85.4954,73.1278 84.5,67.5C 81.135,64.2339 80.635,60.5673 83,56.5C 83.3826,57.056 83.8826,57.3893 84.5,57.5 Z"/></g>
<g><path style="opacity:1" fill="#0f5e58" d="M 71.5,59.5 C 77.359,61.1895 81.5257,64.8561 84,70.5C 84.4993,75.4889 84.6659,80.4889 84.5,85.5C 79.1563,85.666 73.8229,85.4994 68.5,85C 67.0161,84.3378 65.6828,83.5045 64.5,82.5C 61.2145,79.6 59.2145,75.9334 58.5,71.5C 58.5,67.5 58.5,63.5 58.5,59.5C 62.8333,59.5 67.1667,59.5 71.5,59.5 Z"/></g>
<g><path style="opacity:1" fill="#3ad1be" d="M 57.5,58.5 C 57.5,62.8333 57.5,67.1667 57.5,71.5C 57.8333,71.5 58.1667,71.5 58.5,71.5C 59.2145,75.9334 61.2145,79.6 64.5,82.5C 63.0222,82.238 61.6888,82.5713 60.5,83.5C 61.714,85.0691 63.3807,85.9024 65.5,86C 68.7015,89.386 68.0348,90.7194 63.5,90C 61.9512,88.786 60.7845,87.286 60,85.5C 59.5065,87.1341 59.3398,88.8008 59.5,90.5C 58.8333,89.1667 58.1667,87.8333 57.5,86.5C 50.011,85.671 42.3443,85.171 34.5,85C 33.4734,84.4867 32.4734,83.9867 31.5,83.5C 26.6449,78.3159 25.3116,72.3159 27.5,65.5C 28.1667,64.5 28.8333,63.5 29.5,62.5C 31.6125,61.5604 33.6125,60.3937 35.5,59C 42.8258,58.5003 50.1591,58.3337 57.5,58.5 Z"/></g>
<g><path style="opacity:1" fill="#2ed4bf" d="M 57.5,71.5 C 58.6879,78.8931 55.6879,81.7265 48.5,80C 50.1161,80.6152 51.4495,81.6152 52.5,83C 47.8333,83.6667 43.1667,83.6667 38.5,83C 38.9574,82.586 39.2907,82.086 39.5,81.5C 36.1914,78.5303 34.1914,74.8636 33.5,70.5C 33.9817,68.0801 35.315,66.2468 37.5,65C 36.6243,63.4152 35.2909,62.4152 33.5,62C 34.6226,60.9563 35.9559,60.2896 37.5,60C 43.5,59.3333 49.5,59.3333 55.5,60C 54.3832,63.0731 54.2165,66.2397 55,69.5C 55.7083,70.3805 56.5416,71.0472 57.5,71.5 Z"/></g>
<g><path style="opacity:1" fill="#8adcf4" d="M 111.5,62.5 C 116.047,66.0836 117.547,70.7503 116,76.5C 115.623,77.9423 114.79,78.9423 113.5,79.5C 113.749,76.9979 114.083,74.4979 114.5,72C 112.791,69.0757 111.791,65.909 111.5,62.5 Z"/></g>
<g><path style="opacity:1" fill="#dffefd" d="M 27.5,65.5 C 25.3116,72.3159 26.6449,78.3159 31.5,83.5C 28.297,83.3185 26.4637,81.6518 26,78.5C 25.8333,76.3333 25.6667,74.1667 25.5,72C 25.5332,69.3897 26.1999,67.223 27.5,65.5 Z"/></g>
<g><path style="opacity:1" fill="#e3fffd" d="M 31.5,83.5 C 32.4734,83.9867 33.4734,84.4867 34.5,85C 42.3443,85.171 50.011,85.671 57.5,86.5C 57.0056,94.9756 57.6723,103.309 59.5,111.5C 57.3057,109.779 56.139,107.445 56,104.5C 55.5006,98.8431 55.3339,93.1764 55.5,87.5C 46.3176,87.2898 37.3176,87.7898 28.5,89C 29.8646,87.3181 31.3646,87.1514 33,88.5C 33.1816,86.6698 32.6816,85.0031 31.5,83.5 Z"/></g>
<g><path style="opacity:1" fill="#c1e3ed" d="M 93.5,8.5 C 122.744,20.1112 138.077,41.7779 139.5,73.5C 139.193,88.774 134.193,102.107 124.5,113.5C 127.345,109.143 129.678,104.477 131.5,99.5C 135.79,90.9616 137.79,81.7949 137.5,72C 137.896,62.4993 135.896,53.6659 131.5,45.5C 129.767,41.8144 127.934,38.1478 126,34.5C 116.665,22.8947 105.832,14.2281 93.5,8.5 Z"/></g>
<g><path style="opacity:1" fill="#30d2be" d="M 64.5,82.5 C 65.6828,83.5045 67.0161,84.3378 68.5,85C 73.8229,85.4994 79.1563,85.666 84.5,85.5C 84.6664,93.1739 84.4997,100.841 84,108.5C 83.3378,109.984 82.5045,111.317 81.5,112.5C 77.2356,116.111 72.2356,117.445 66.5,116.5C 64.5956,116.262 63.2623,115.262 62.5,113.5C 62.4208,112.07 62.7542,110.736 63.5,109.5C 62.3717,108.738 61.2051,108.071 60,107.5C 59.5006,101.843 59.3339,96.1764 59.5,90.5C 59.3398,88.8008 59.5065,87.1341 60,85.5C 60.7845,87.286 61.9512,88.786 63.5,90C 68.0348,90.7194 68.7015,89.386 65.5,86C 63.3807,85.9024 61.714,85.0691 60.5,83.5C 61.6888,82.5713 63.0222,82.238 64.5,82.5 Z"/></g>
<g><path style="opacity:1" fill="#c6fafb" d="M 84.5,85.5 C 91.8333,85.5 99.1667,85.5 106.5,85.5C 99.6866,86.4912 92.6866,86.8245 85.5,86.5C 85.6664,94.5069 85.4997,102.507 85,110.5C 84.1841,111.823 83.0174,112.489 81.5,112.5C 82.5045,111.317 83.3378,109.984 84,108.5C 84.4997,100.841 84.6664,93.1739 84.5,85.5 Z"/></g>
<g><path style="opacity:1" fill="#4fcdbc" d="M 57.5,86.5 C 58.1667,87.8333 58.8333,89.1667 59.5,90.5C 59.3339,96.1764 59.5006,101.843 60,107.5C 61.2051,108.071 62.3717,108.738 63.5,109.5C 62.7542,110.736 62.4208,112.07 62.5,113.5C 61.5,112.833 60.5,112.167 59.5,111.5C 57.6723,103.309 57.0056,94.9756 57.5,86.5 Z"/></g>
<g><path style="opacity:0.722" fill="#c0e5eb" d="M 3.5,67.5 C 3.53461,86.6095 9.86794,103.276 22.5,117.5C 25.5271,121.194 28.8604,124.527 32.5,127.5C 11.6641,113.156 1.99741,93.156 3.5,67.5 Z"/></g>
<g><path style="opacity:1" fill="#bbf1ee" d="M 81.5,112.5 C 81.1412,114.371 80.1412,115.871 78.5,117C 74.3112,117.812 70.3112,117.645 66.5,116.5C 72.2356,117.445 77.2356,116.111 81.5,112.5 Z"/></g>
<g><path style="opacity:1" fill="#ecfbfc" d="M 22.5,117.5 C 27.3004,119.433 31.3004,122.433 34.5,126.5C 38.8696,128.047 42.5363,130.547 45.5,134C 60.7622,138.27 76.0956,138.603 91.5,135C 90.2888,134.107 90.2888,133.274 91.5,132.5C 92.7362,133.246 94.0695,133.579 95.5,133.5C 95.281,132.325 95.6143,131.325 96.5,130.5C 98.0983,131.485 99.765,131.651 101.5,131C 105.151,129.165 108.818,127.332 112.5,125.5C 106.612,131.282 99.612,135.282 91.5,137.5C 91.0831,136.876 90.4164,136.543 89.5,136.5C 79.0837,138.003 68.7503,139.003 58.5,139.5C 48.7534,137.596 40.0867,133.596 32.5,127.5C 28.8604,124.527 25.5271,121.194 22.5,117.5 Z"/></g>
<g><path style="opacity:0.467" fill="#c0ebf5" d="M 91.5,137.5 C 80.662,140.565 69.662,141.232 58.5,139.5C 68.7503,139.003 79.0837,138.003 89.5,136.5C 90.4164,136.543 91.0831,136.876 91.5,137.5 Z"/></g>
</svg>
