<?xml version="1.0" encoding="UTF-8"?>
<!DOCTYPE svg PUBLIC "-//W3C//DTD SVG 1.1//EN" "http://www.w3.org/Graphics/SVG/1.1/DTD/svg11.dtd">
<svg xmlns="http://www.w3.org/2000/svg" version="1.1" width="310px" height="310px" style="shape-rendering:geometricPrecision; text-rendering:geometricPrecision; image-rendering:optimizeQuality; fill-rule:evenodd; clip-rule:evenodd" xmlns:xlink="http://www.w3.org/1999/xlink">
<g><path style="opacity:1" fill="#fefefe" d="M 207.5,16.5 C 251.96,34.1295 281.46,65.7962 296,111.5C 297.647,117.084 298.813,122.751 299.5,128.5C 300.309,143.485 300.642,158.485 300.5,173.5C 300.5,174.167 300.5,174.833 300.5,175.5C 297.684,184.144 295.184,193.144 293,202.5C 290.749,205.017 289.916,208.017 290.5,211.5C 288.52,212.848 287.353,214.848 287,217.5C 285.488,218.257 284.154,219.257 283,220.5C 282.946,223.861 281.946,226.861 280,229.5C 279.586,229.043 279.086,228.709 278.5,228.5C 277.322,231.391 276.655,234.391 276.5,237.5C 266.9,252.768 254.567,265.434 239.5,275.5C 234.773,276.978 230.44,279.311 226.5,282.5C 225.914,282.291 225.414,281.957 225,281.5C 219.141,286.68 212.308,290.18 204.5,292C 202.007,293.419 199.674,294.919 197.5,296.5C 190.673,298.622 183.673,299.955 176.5,300.5C 163.183,301.525 149.849,301.691 136.5,301C 126.048,298.136 115.381,295.969 104.5,294.5C 100.716,293.571 97.049,292.238 93.5,290.5C 92.8933,290.624 92.56,290.957 92.5,291.5C 91.5084,291.672 90.8417,291.338 90.5,290.5C 72.8361,281.127 56.6694,268.794 42,253.5C 30.3742,239.256 21.0409,223.59 14,206.5C 12.3158,202.284 11.1491,197.951 10.5,193.5C 9.37612,186.261 8.20946,178.928 7,171.5C 5.75846,153.593 7.09179,135.927 11,118.5C 11.6667,119.833 12.3333,119.833 13,118.5C 12.1784,114.164 12.3451,109.83 13.5,105.5C 24.6032,72.0703 45.2699,46.4037 75.5,28.5C 82.0167,26.0078 88.35,23.0078 94.5,19.5C 98.0819,20.5389 100.415,19.2056 101.5,15.5C 101.833,15.5 102.167,15.5 102.5,15.5C 107.832,14.6645 112.999,13.3312 118,11.5C 120.307,12.9691 122.141,12.6357 123.5,10.5C 132.834,8.11679 142.334,7.11679 152,7.5C 162.356,7.32343 172.523,8.15676 182.5,10C 190.775,12.4839 199.108,14.6505 207.5,16.5 Z"/></g>
<g><path style="opacity:1" fill="#b2deea" d="M 300.5,185.5 C 299.988,182.368 299.988,179.035 300.5,175.5C 300.5,174.833 300.5,174.167 300.5,173.5C 303.287,158.443 302.954,143.443 299.5,128.5C 298.813,122.751 297.647,117.084 296,111.5C 281.46,65.7962 251.96,34.1295 207.5,16.5C 190.211,9.20858 172.044,5.54191 153,5.5C 135.337,5.39476 118.504,8.72809 102.5,15.5C 102.167,15.5 101.833,15.5 101.5,15.5C 97.4115,16.7087 93.4115,18.2087 89.5,20C 84.3025,22.0924 79.6359,24.9258 75.5,28.5C 45.2699,46.4037 24.6032,72.0703 13.5,105.5C 12.7148,108.404 11.3815,111.07 9.5,113.5C 23.0201,67.138 52.0201,34.3047 96.5,15C 162.635,-7.5121 219.802,6.32123 268,56.5C 298.401,94.4348 309.234,137.435 300.5,185.5 Z"/></g>
<g><path style="opacity:1" fill="#eefefe" d="M 207.5,16.5 C 199.108,14.6505 190.775,12.4839 182.5,10C 172.523,8.15676 162.356,7.32343 152,7.5C 142.334,7.11679 132.834,8.11679 123.5,10.5C 122.141,12.6357 120.307,12.9691 118,11.5C 112.999,13.3312 107.832,14.6645 102.5,15.5C 118.504,8.72809 135.337,5.39476 153,5.5C 172.044,5.54191 190.211,9.20858 207.5,16.5 Z"/></g>
<g><path style="opacity:1" fill="#eefefe" d="M 101.5,15.5 C 100.415,19.2056 98.0819,20.5389 94.5,19.5C 88.35,23.0078 82.0167,26.0078 75.5,28.5C 79.6359,24.9258 84.3025,22.0924 89.5,20C 93.4115,18.2087 97.4115,16.7087 101.5,15.5 Z"/></g>
<g><path style="opacity:1" fill="#bff8fe" d="M 159.5,55.5 C 154.105,55.2665 148.772,55.5998 143.5,56.5C 145.743,55.1883 148.41,54.5217 151.5,54.5C 154.355,54.5025 157.022,54.8359 159.5,55.5 Z"/></g>
<g><path style="opacity:1" fill="#7ad9f2" d="M 159.5,55.5 C 166.063,56.4449 171.396,59.4449 175.5,64.5C 174.167,64.5 172.833,64.5 171.5,64.5C 171.5,63.5 171.5,62.5 171.5,61.5C 166.47,60.1022 161.637,58.4355 157,56.5C 151.163,57.2089 145.33,57.8755 139.5,58.5C 140.514,57.3263 141.847,56.6596 143.5,56.5C 148.772,55.5998 154.105,55.2665 159.5,55.5 Z"/></g>
<g><path style="opacity:1" fill="#67dbfe" d="M 175.5,64.5 C 177.765,68.9893 179.931,73.656 182,78.5C 182.169,94.0055 182.669,109.339 183.5,124.5C 196.66,125.331 209.994,125.831 223.5,126C 230.541,126.648 236.874,128.814 242.5,132.5C 248.208,136.213 251.541,141.546 252.5,148.5C 251.571,154.453 250.904,160.453 250.5,166.5C 248.58,169.339 246.913,172.339 245.5,175.5C 243.999,176.752 242.332,177.752 240.5,178.5C 236.11,179.695 231.777,181.195 227.5,183C 212.837,183.5 198.17,183.667 183.5,183.5C 183.666,174.494 183.5,165.494 183,156.5C 182.627,152.782 181.461,149.449 179.5,146.5C 177.925,142.922 175.925,139.589 173.5,136.5C 173.392,134.217 172.559,132.217 171,130.5C 170.667,130.833 170.333,131.167 170,131.5C 166.858,130.022 164.358,127.855 162.5,125C 157.956,124.853 153.623,124.02 149.5,122.5C 141.195,123.408 132.861,123.741 124.5,123.5C 124.333,108.496 124.5,93.4963 125,78.5C 126.707,76.0912 127.54,73.4245 127.5,70.5C 129.833,64.8333 133.833,60.8333 139.5,58.5C 145.33,57.8755 151.163,57.2089 157,56.5C 161.637,58.4355 166.47,60.1022 171.5,61.5C 171.5,62.5 171.5,63.5 171.5,64.5C 172.833,64.5 174.167,64.5 175.5,64.5 Z"/></g>
<g><path style="opacity:1" fill="#80d6ef" d="M 175.5,64.5 C 178.326,67.4835 180.659,70.8168 182.5,74.5C 183.457,91.1318 183.79,107.799 183.5,124.5C 182.669,109.339 182.169,94.0055 182,78.5C 179.931,73.656 177.765,68.9893 175.5,64.5 Z"/></g>
<g><path style="opacity:1" fill="#88dbf2" d="M 127.5,70.5 C 127.54,73.4245 126.707,76.0912 125,78.5C 124.5,93.4963 124.333,108.496 124.5,123.5C 124.167,123.5 123.833,123.5 123.5,123.5C 123.333,108.163 123.5,92.8297 124,77.5C 124.67,74.8261 125.837,72.4927 127.5,70.5 Z"/></g>
<g><path style="opacity:1" fill="#e7fffe" d="M 182.5,74.5 C 183.117,74.6107 183.617,74.944 184,75.5C 184.5,91.4965 184.667,107.497 184.5,123.5C 199.343,123.171 214.01,123.504 228.5,124.5C 213.5,124.5 198.5,124.5 183.5,124.5C 183.79,107.799 183.457,91.1318 182.5,74.5 Z"/></g>
<g><path style="opacity:1" fill="#88ddf3" d="M 183.5,124.5 C 198.5,124.5 213.5,124.5 228.5,124.5C 234.116,125.638 238.783,128.304 242.5,132.5C 236.874,128.814 230.541,126.648 223.5,126C 209.994,125.831 196.66,125.331 183.5,124.5 Z"/></g>
<g><path style="opacity:1" fill="#105e58" d="M 124.5,124.5 C 133.839,124.334 143.173,124.5 152.5,125C 160.571,126.911 167.571,130.744 173.5,136.5C 175.925,139.589 177.925,142.922 179.5,146.5C 182.148,158.998 183.148,171.665 182.5,184.5C 173.494,184.666 164.494,184.5 155.5,184C 140.845,181.029 131.179,172.529 126.5,158.5C 124.676,147.298 124.01,135.964 124.5,124.5 Z"/></g>
<g><path style="opacity:1" fill="#097168" d="M 123.5,124.5 C 123.833,124.5 124.167,124.5 124.5,124.5C 124.01,135.964 124.676,147.298 126.5,158.5C 125.4,156.723 124.566,154.723 124,152.5C 123.5,143.173 123.334,133.839 123.5,124.5 Z"/></g>
<g><path style="opacity:1" fill="#62d2e9" d="M 173.5,136.5 C 167.571,130.744 160.571,126.911 152.5,125C 143.173,124.5 133.839,124.334 124.5,124.5C 124.167,124.5 123.833,124.5 123.5,124.5C 123.5,124.167 123.5,123.833 123.5,123.5C 123.833,123.5 124.167,123.5 124.5,123.5C 132.861,123.741 141.195,123.408 149.5,122.5C 153.623,124.02 157.956,124.853 162.5,125C 164.358,127.855 166.858,130.022 170,131.5C 170.333,131.167 170.667,130.833 171,130.5C 172.559,132.217 173.392,134.217 173.5,136.5 Z"/></g>
<g><path style="opacity:1" fill="#eafeff" d="M 299.5,128.5 C 302.954,143.443 303.287,158.443 300.5,173.5C 300.642,158.485 300.309,143.485 299.5,128.5 Z"/></g>
<g><path style="opacity:1" fill="#84dbf2" d="M 252.5,148.5 C 254.056,154.707 253.39,160.707 250.5,166.5C 250.904,160.453 251.571,154.453 252.5,148.5 Z"/></g>
<g><path style="opacity:1" fill="#126c70" d="M 179.5,146.5 C 181.461,149.449 182.627,152.782 183,156.5C 183.5,165.494 183.666,174.494 183.5,183.5C 183.5,183.833 183.5,184.167 183.5,184.5C 183.167,184.5 182.833,184.5 182.5,184.5C 183.148,171.665 182.148,158.998 179.5,146.5 Z"/></g>
<g><path style="opacity:1" fill="#dcfdfb" d="M 56.5,168.5 C 59.1846,171.19 61.5179,174.19 63.5,177.5C 61.1469,175.899 58.9802,173.899 57,171.5C 56.5172,170.552 56.3505,169.552 56.5,168.5 Z"/></g>
<g><path style="opacity:1" fill="#effefe" d="M 13.5,105.5 C 12.3451,109.83 12.1784,114.164 13,118.5C 12.3333,119.833 11.6667,119.833 11,118.5C 7.09179,135.927 5.75846,153.593 7,171.5C 8.20946,178.928 9.37612,186.261 10.5,193.5C 6.6072,180.759 4.6072,167.593 4.5,154C 5.37469,140.38 7.04135,126.88 9.5,113.5C 11.3815,111.07 12.7148,108.404 13.5,105.5 Z"/></g>
<g><path style="opacity:1" fill="#2ed3bf" d="M 123.5,124.5 C 123.334,133.839 123.5,143.173 124,152.5C 124.566,154.723 125.4,156.723 126.5,158.5C 131.179,172.529 140.845,181.029 155.5,184C 164.494,184.5 173.494,184.666 182.5,184.5C 182.833,184.5 183.167,184.5 183.5,184.5C 183.5,185.833 183.5,187.167 183.5,188.5C 182.767,203.018 182.101,217.685 181.5,232.5C 181.122,234.921 180.455,237.254 179.5,239.5C 176.5,243.167 173.167,246.5 169.5,249.5C 167.5,250.167 165.5,250.833 163.5,251.5C 155.672,251.95 148.006,251.283 140.5,249.5C 140.934,246.834 139.934,245.667 137.5,246C 138.696,246.654 138.696,247.154 137.5,247.5C 136.583,246.873 135.583,246.539 134.5,246.5C 131.473,244.14 128.806,241.473 126.5,238.5C 124.672,234.015 123.672,229.348 123.5,224.5C 124.331,211.006 124.831,197.339 125,183.5C 126.011,184.337 127.178,184.67 128.5,184.5C 128.719,183.325 128.386,182.325 127.5,181.5C 108.25,183.121 88.9165,182.787 69.5,180.5C 67.4832,179.471 65.4832,178.471 63.5,177.5C 61.5179,174.19 59.1846,171.19 56.5,168.5C 49.1869,147.917 55.5202,133.417 75.5,125C 91.4965,124.5 107.497,124.333 123.5,124.5 Z"/></g>
<g><path style="opacity:1" fill="#e4fdfe" d="M 245.5,175.5 C 245.249,177.17 244.582,178.67 243.5,180C 238.818,182.587 233.818,184.087 228.5,184.5C 232.748,183.043 236.748,181.043 240.5,178.5C 242.332,177.752 243.999,176.752 245.5,175.5 Z"/></g>
<g><path style="opacity:1" fill="#57d3c4" d="M 69.5,180.5 C 88.9165,182.787 108.25,183.121 127.5,181.5C 128.386,182.325 128.719,183.325 128.5,184.5C 127.178,184.67 126.011,184.337 125,183.5C 124.831,197.339 124.331,211.006 123.5,224.5C 123.5,211.167 123.5,197.833 123.5,184.5C 107.132,184.789 90.7984,184.456 74.5,183.5C 72.7392,182.687 71.0725,181.687 69.5,180.5 Z"/></g>
<g><path style="opacity:1" fill="#80d5ef" d="M 240.5,178.5 C 236.748,181.043 232.748,183.043 228.5,184.5C 228.167,184.5 227.833,184.5 227.5,184.5C 212.833,184.5 198.167,184.5 183.5,184.5C 183.5,184.167 183.5,183.833 183.5,183.5C 198.17,183.667 212.837,183.5 227.5,183C 231.777,181.195 236.11,179.695 240.5,178.5 Z"/></g>
<g><path style="opacity:1" fill="#ecfdfe" d="M 300.5,175.5 C 299.988,179.035 299.988,182.368 300.5,185.5C 300.737,186.791 300.404,187.791 299.5,188.5C 299.279,185.903 298.779,185.903 298,188.5C 296.564,196.64 294.064,204.307 290.5,211.5C 289.916,208.017 290.749,205.017 293,202.5C 295.184,193.144 297.684,184.144 300.5,175.5 Z"/></g>
<g><path style="opacity:1" fill="#62d3c8" d="M 183.5,188.5 C 183.667,202.504 183.5,216.504 183,230.5C 182.722,231.416 182.222,232.082 181.5,232.5C 182.101,217.685 182.767,203.018 183.5,188.5 Z"/></g>
<g><path style="opacity:1" fill="#e4fefe" d="M 183.5,184.5 C 198.167,184.5 212.833,184.5 227.5,184.5C 213.343,185.496 199.01,185.829 184.5,185.5C 184.667,201.17 184.5,216.837 184,232.5C 182.946,235.314 181.446,237.647 179.5,239.5C 180.455,237.254 181.122,234.921 181.5,232.5C 182.222,232.082 182.722,231.416 183,230.5C 183.5,216.504 183.667,202.504 183.5,188.5C 183.5,187.167 183.5,185.833 183.5,184.5 Z"/></g>
<g><path style="opacity:1" fill="#e0fefe" d="M 74.5,183.5 C 90.7984,184.456 107.132,184.789 123.5,184.5C 123.5,197.833 123.5,211.167 123.5,224.5C 123.672,229.348 124.672,234.015 126.5,238.5C 124.716,237.426 123.549,235.76 123,233.5C 122.5,217.503 122.333,201.503 122.5,185.5C 106.83,185.667 91.1631,185.5 75.5,185C 74.944,184.617 74.6107,184.117 74.5,183.5 Z"/></g>
<g><path style="opacity:0.471" fill="#b5dee9" d="M 299.5,188.5 C 289.56,230.757 265.893,262.757 228.5,284.5C 227.262,284.19 227.262,283.69 228.5,283C 232.58,280.971 236.246,278.471 239.5,275.5C 254.567,265.434 266.9,252.768 276.5,237.5C 282.703,229.766 287.37,221.099 290.5,211.5C 294.064,204.307 296.564,196.64 298,188.5C 298.779,185.903 299.279,185.903 299.5,188.5 Z"/></g>
<g><path style="opacity:0.969" fill="#b5e0ea" d="M 9.5,113.5 C 7.04135,126.88 5.37469,140.38 4.5,154C 4.6072,167.593 6.6072,180.759 10.5,193.5C 11.1491,197.951 12.3158,202.284 14,206.5C 21.0409,223.59 30.3742,239.256 42,253.5C 56.6694,268.794 72.8361,281.127 90.5,290.5C 40.7039,266.301 11.8705,226.634 4,171.5C 2.95187,155.752 3.61853,140.085 6,124.5C 6.72436,120.573 7.89102,116.906 9.5,113.5 Z"/></g>
<g><path style="opacity:1" fill="#ecfefe" d="M 290.5,211.5 C 287.37,221.099 282.703,229.766 276.5,237.5C 276.655,234.391 277.322,231.391 278.5,228.5C 279.086,228.709 279.586,229.043 280,229.5C 281.946,226.861 282.946,223.861 283,220.5C 284.154,219.257 285.488,218.257 287,217.5C 287.353,214.848 288.52,212.848 290.5,211.5 Z"/></g>
<g><path style="opacity:1" fill="#4bceba" d="M 163.5,251.5 C 156.393,253.771 149.059,254.104 141.5,252.5C 138.98,250.737 136.647,248.737 134.5,246.5C 135.583,246.539 136.583,246.873 137.5,247.5C 138.696,247.154 138.696,246.654 137.5,246C 139.934,245.667 140.934,246.834 140.5,249.5C 148.006,251.283 155.672,251.95 163.5,251.5 Z"/></g>
<g><path style="opacity:1" fill="#e8fefe" d="M 169.5,249.5 C 169.119,250.931 168.119,251.764 166.5,252C 168.839,254.55 168.172,255.05 164.5,253.5C 158.651,255.466 152.651,255.966 146.5,255C 144.509,254.626 142.842,253.793 141.5,252.5C 149.059,254.104 156.393,253.771 163.5,251.5C 165.5,250.833 167.5,250.167 169.5,249.5 Z"/></g>
<g><path style="opacity:1" fill="#ebfefe" d="M 239.5,275.5 C 236.246,278.471 232.58,280.971 228.5,283C 227.262,283.69 227.262,284.19 228.5,284.5C 228.158,285.338 227.492,285.672 226.5,285.5C 226.565,285.062 226.399,284.728 226,284.5C 216.927,289.451 207.427,293.451 197.5,296.5C 199.674,294.919 202.007,293.419 204.5,292C 212.308,290.18 219.141,286.68 225,281.5C 225.414,281.957 225.914,282.291 226.5,282.5C 230.44,279.311 234.773,276.978 239.5,275.5 Z"/></g>
<g><path style="opacity:0.902" fill="#b2e3eb" d="M 104.5,294.5 C 109.176,296.68 114.176,298.18 119.5,299C 120.167,299.333 120.833,299.667 121.5,300C 121.272,300.399 120.938,300.565 120.5,300.5C 110.561,299.075 101.228,296.075 92.5,291.5C 92.56,290.957 92.8933,290.624 93.5,290.5C 97.049,292.238 100.716,293.571 104.5,294.5 Z"/></g>
<g><path style="opacity:1" fill="#eefefe" d="M 104.5,294.5 C 115.381,295.969 126.048,298.136 136.5,301C 149.849,301.691 163.183,301.525 176.5,300.5C 175.737,301.268 174.737,301.768 173.5,302C 157.605,302.998 141.771,302.498 126,300.5C 124.615,300.514 123.449,300.848 122.5,301.5C 121.508,301.672 120.842,301.338 120.5,300.5C 120.938,300.565 121.272,300.399 121.5,300C 120.833,299.667 120.167,299.333 119.5,299C 114.176,298.18 109.176,296.68 104.5,294.5 Z"/></g>
<g><path style="opacity:0.6" fill="#b8e9f2" d="M 226.5,285.5 C 193.913,303.577 159.246,308.91 122.5,301.5C 123.449,300.848 124.615,300.514 126,300.5C 141.771,302.498 157.605,302.998 173.5,302C 174.737,301.768 175.737,301.268 176.5,300.5C 183.673,299.955 190.673,298.622 197.5,296.5C 207.427,293.451 216.927,289.451 226,284.5C 226.399,284.728 226.565,285.062 226.5,285.5 Z"/></g>
</svg>
